<?xml version="1.0" encoding="UTF-8" standalone="no"?>
<!-- Created with Inkscape (http://www.inkscape.org/) -->

<svg
   version="1.1"
   id="svg4347"
   xml:space="preserve"
   width="682.66669"
   height="682.66669"
   viewBox="0 0 682.66669 682.66669"
   xmlns="http://www.w3.org/2000/svg"
   xmlns:svg="http://www.w3.org/2000/svg"><defs
     id="defs4351"><clipPath
       clipPathUnits="userSpaceOnUse"
       id="clipPath4361"><path
         d="M 0,512 H 512 V 0 H 0 Z"
         id="path4359" /></clipPath></defs><g
     id="g4353"
     transform="matrix(1.3333333,0,0,-1.3333333,0,682.66667)"><g
       id="g4355"><g
         id="g4357"
         clip-path="url(#clipPath4361)"><g
           id="g4363"
           transform="translate(291.8711,434.1699)"><path
             d="m 0,0 h -21.365 v 39.181 c 0,1.375 1.114,2.489 2.489,2.489 h 193.117 c 1.375,0 2.489,-1.114 2.489,-2.489 V 0 H 35"
             style="fill:none;stroke:#000000;stroke-width:15;stroke-linecap:round;stroke-linejoin:round;stroke-miterlimit:10;stroke-dasharray:none;stroke-opacity:1"
             id="path4365" /></g><g
           id="g4367"
           transform="translate(353.498,475.8403)"><path
             d="m 0,0 8.826,22.34 c 1.507,3.814 5.192,6.32 9.292,6.32 h 57.424 c 4.102,0 7.785,-2.506 9.292,-6.32 L 93.661,0"
             style="fill:none;stroke:#000000;stroke-width:15;stroke-linecap:round;stroke-linejoin:round;stroke-miterlimit:10;stroke-dasharray:none;stroke-opacity:1"
             id="path4369" /></g><g
           id="g4371"
           transform="translate(313.0859,298.856)"><path
             d="M 0,0 C -0.123,0.06 -0.245,0.12 -0.367,0.18 -0.245,0.12 -0.123,0.06 0,0 Z"
             style="fill:none;stroke:#000000;stroke-width:15;stroke-linecap:round;stroke-linejoin:round;stroke-miterlimit:10;stroke-dasharray:none;stroke-opacity:1"
             id="path4373" /></g><g
           id="g4375"
           transform="translate(468.6016,78.5742)"><path
             d="M 0,0 V 355.596"
             style="fill:none;stroke:#000000;stroke-width:15;stroke-linecap:round;stroke-linejoin:round;stroke-miterlimit:10;stroke-dasharray:none;stroke-opacity:1"
             id="path4377" /></g><g
           id="g4379"
           transform="translate(270.5059,434.1699)"><path
             d="m 0,0 v -36.243 c 0,-0.715 0.308,-1.396 0.845,-1.868 l 59.86,-52.692 c 0.537,-0.472 0.845,-1.153 0.845,-1.868 V -400.05 c 0,-0.894 -0.726,-1.62 -1.62,-1.62 H -63.675 c -0.894,0 -1.62,-0.725 -1.62,-1.62 v -21.76 c 0,-0.895 0.726,-1.62 1.62,-1.62 h 260.151 c 0.894,0 1.62,0.725 1.62,1.62 v 34.454"
             style="fill:none;stroke:#000000;stroke-width:15;stroke-linecap:round;stroke-linejoin:round;stroke-miterlimit:10;stroke-dasharray:none;stroke-opacity:1"
             id="path4381" /></g><g
           id="g4383"
           transform="translate(301.8418,369.2187)"><path
             d="m 0,0 c -8.171,-7.902 -13.252,-18.98 -13.252,-31.245 0,-24.005 19.46,-43.465 43.466,-43.465"
             style="fill:none;stroke:#000000;stroke-width:15;stroke-linecap:round;stroke-linejoin:round;stroke-miterlimit:10;stroke-dasharray:none;stroke-opacity:1"
             id="path4385" /></g><g
           id="g4387"
           transform="translate(399.417,32.5)"><path
             d="M 0,0 H 39.185"
             style="fill:none;stroke:#000000;stroke-width:15;stroke-linecap:round;stroke-linejoin:round;stroke-miterlimit:10;stroke-dasharray:none;stroke-opacity:1"
             id="path4389" /></g><g
           id="g4391"
           transform="translate(399.417,57.5)"><path
             d="M 0,0 H 39.185"
             style="fill:none;stroke:#000000;stroke-width:15;stroke-linecap:round;stroke-linejoin:round;stroke-miterlimit:10;stroke-dasharray:none;stroke-opacity:1"
             id="path4393" /></g><g
           id="g4395"
           transform="translate(399.417,82.5)"><path
             d="M 0,0 H 39.185"
             style="fill:none;stroke:#000000;stroke-width:15;stroke-linecap:round;stroke-linejoin:round;stroke-miterlimit:10;stroke-dasharray:none;stroke-opacity:1"
             id="path4397" /></g><g
           id="g4399"
           transform="translate(400.3281,375.6104)"><path
             d="M 0,0 C -16.353,0 -30.27,-10.43 -35.462,-25 H 35.463 C 30.27,-10.43 16.354,0 0,0 Z"
             style="fill:none;stroke:#000000;stroke-width:15;stroke-linecap:round;stroke-linejoin:round;stroke-miterlimit:10;stroke-dasharray:none;stroke-opacity:1"
             id="path4401" /></g><g
           id="g4403"
           transform="translate(400.3281,300.3369)"><path
             d="M 0,0 C 16.354,0 30.27,10.43 35.463,25 H -35.462 C -30.27,10.43 -16.353,0 0,0 Z"
             style="fill:none;stroke:#000000;stroke-width:15;stroke-linecap:round;stroke-linejoin:round;stroke-miterlimit:10;stroke-dasharray:none;stroke-opacity:1"
             id="path4405" /></g><g
           id="g4407"
           transform="translate(435.791,325.3369)"><path
             d="M 0,0 C 1.407,3.95 2.174,8.204 2.174,12.637 2.174,17.07 1.407,21.324 0,25.273"
             style="fill:none;stroke:#000000;stroke-width:15;stroke-linecap:round;stroke-linejoin:round;stroke-miterlimit:10;stroke-dasharray:none;stroke-opacity:1"
             id="path4409" /></g><g
           id="g4411"
           transform="translate(364.8662,350.6104)"><path
             d="m 0,0 c -1.407,-3.95 -2.175,-8.204 -2.175,-12.637 0,-4.433 0.768,-8.687 2.175,-12.636"
             style="fill:none;stroke:#000000;stroke-width:15;stroke-linecap:round;stroke-linejoin:round;stroke-miterlimit:10;stroke-dasharray:none;stroke-opacity:1"
             id="path4413" /></g><g
           id="g4415"
           transform="translate(77.2461,357.5493)"><path
             d="m 0,0 h -18.639 c -8.399,0 -15.209,-6.809 -15.209,-15.208 v -8.735 c 0,-8.399 6.81,-15.209 15.209,-15.209 h 234.631"
             style="fill:none;stroke:#000000;stroke-width:15;stroke-linecap:round;stroke-linejoin:round;stroke-miterlimit:10;stroke-dasharray:none;stroke-opacity:1"
             id="path4417" /></g><g
           id="g4419"
           transform="translate(293.2383,357.5493)"><path
             d="M 0,0 H -180.992"
             style="fill:none;stroke:#000000;stroke-width:15;stroke-linecap:round;stroke-linejoin:round;stroke-miterlimit:10;stroke-dasharray:none;stroke-opacity:1"
             id="path4421" /></g><g
           id="g4423"
           transform="translate(274.3867,318.3975)"><path
             d="m 0,0 -171.189,-131.358 c -6.665,-5.113 -7.921,-14.661 -2.808,-21.325 l 5.317,-6.929 c 5.114,-6.664 14.66,-7.921 21.325,-2.807 L 38.789,-19.585"
             style="fill:none;stroke:#000000;stroke-width:15;stroke-linecap:round;stroke-linejoin:round;stroke-miterlimit:10;stroke-dasharray:none;stroke-opacity:1"
             id="path4425" /></g><g
           id="g4427"
           transform="translate(298.2207,287.3364)"><path
             d="m 0,0 -55.848,-208.427 c -2.173,-8.114 2.641,-16.453 10.754,-18.627 l 8.437,-2.26 c 8.113,-2.174 16.453,2.641 18.627,10.754 l 51.865,193.562"
             style="fill:none;stroke:#000000;stroke-width:15;stroke-linecap:round;stroke-linejoin:round;stroke-miterlimit:10;stroke-dasharray:none;stroke-opacity:1"
             id="path4429" /></g></g></g></g></svg>
