<svg height="512" viewBox="0 0 64 64" width="512" xmlns="http://www.w3.org/2000/svg"><g id="Layer_2" data-name="Layer 2"><path d="m32 23.5a8.5 8.5 0 1 0 8.5 8.5 8.51 8.51 0 0 0 -8.5-8.5zm0 14a5.5 5.5 0 1 1 5.5-5.5 5.507 5.507 0 0 1 -5.5 5.5z"/><path d="m11 23.5a8.5 8.5 0 1 0 8.5 8.5 8.51 8.51 0 0 0 -8.5-8.5zm0 14a5.5 5.5 0 1 1 5.5-5.5 5.507 5.507 0 0 1 -5.5 5.5z"/><path d="m53 23.5a8.5 8.5 0 1 0 8.5 8.5 8.51 8.51 0 0 0 -8.5-8.5zm0 14a5.5 5.5 0 1 1 5.5-5.5 5.507 5.507 0 0 1 -5.5 5.5z"/></g></svg>