<?xml version="1.0" encoding="UTF-8"?>
<svg xmlns="http://www.w3.org/2000/svg" id="Layer_1" data-name="Layer 1" viewBox="0 0 512 512" width="512" height="512"><path d="M496,274.367H431V112.134a95.9,95.9,0,0,0-191.805,0v278.06a63.9,63.9,0,0,1-127.8,0V247.3h65a16,16,0,0,0,16-16V88.646a16,16,0,0,0-16-16H152.9V41.9a16,16,0,0,0-16-16h-81.4a16,16,0,0,0-16,16V72.646H16a16,16,0,0,0-16,16V231.3a16,16,0,0,0,16,16H79.39v142.89a95.9,95.9,0,0,0,191.8,0V112.134a63.9,63.9,0,0,1,127.805,0V274.367h-63.39a16,16,0,0,0-16,16V433.026a16,16,0,0,0,16,16H359.1v30.743a16,16,0,0,0,16,16h81.4a16,16,0,0,0,16-16V449.026H496a16,16,0,0,0,16-16V290.367A16,16,0,0,0,496,274.367ZM71.494,57.9h49.4V72.646h-49.4ZM32,104.646H160.391V215.3H32ZM440.506,463.769H391.1V449.026h49.4ZM480,417.026H351.609V306.367H480Z"/></svg>
