<?xml version="1.0" encoding="UTF-8" standalone="no"?>
<!-- Created with Inkscape (http://www.inkscape.org/) -->

<svg
   version="1.1"
   id="svg5142"
   xml:space="preserve"
   width="682.66669"
   height="682.66669"
   viewBox="0 0 682.66669 682.66669"
   xmlns="http://www.w3.org/2000/svg"
   xmlns:svg="http://www.w3.org/2000/svg"><defs
     id="defs5146"><clipPath
       clipPathUnits="userSpaceOnUse"
       id="clipPath5160"><path
         d="M 0,512 H 512 V 0 H 0 Z"
         id="path5158" /></clipPath></defs><g
     id="g5148"
     transform="matrix(1.3333333,0,0,-1.3333333,0,682.66667)"><g
       id="g5150"
       transform="translate(189.5,308.5)"><path
         d="M 0,0 V -210"
         style="fill:none;stroke:#000000;stroke-width:15;stroke-linecap:round;stroke-linejoin:round;stroke-miterlimit:10;stroke-dasharray:none;stroke-opacity:1"
         id="path5152" /></g><g
       id="g5154"><g
         id="g5156"
         clip-path="url(#clipPath5160)"><g
           id="g5162"
           transform="translate(67.5,98.5)"><path
             d="m 0,0 h 122 c 16.568,0 30,-13.432 30,-30 H -60 c 0,16.568 13.432,30 30,30 v 315 c 0,16.568 13.432,30 30,30 h 92 c 16.568,0 30,-13.432 30,-30 v -45"
             style="fill:none;stroke:#000000;stroke-width:15;stroke-linecap:round;stroke-linejoin:round;stroke-miterlimit:10;stroke-dasharray:none;stroke-opacity:1"
             id="path5164" /></g><path
           d="m 67.5,128.5 h 92 v 135 h -92 z"
           style="fill:none;stroke:#000000;stroke-width:15;stroke-linecap:round;stroke-linejoin:round;stroke-miterlimit:10;stroke-dasharray:none;stroke-opacity:1"
           id="path5166" /><g
           id="g5168"
           transform="translate(189.5,413.5)"><path
             d="M 0,0 H -152"
             style="fill:none;stroke:#000000;stroke-width:15;stroke-linecap:round;stroke-linejoin:round;stroke-miterlimit:10;stroke-dasharray:none;stroke-opacity:1"
             id="path5170" /></g><g
           id="g5172"
           transform="translate(159.5,338.5)"><path
             d="m 0,0 c 0,-24.853 -20.147,-45 -45,-45 -24.853,0 -45,20.147 -45,45 0,24.853 20.147,45 45,45 C -20.147,45 0,24.853 0,0 Z"
             style="fill:none;stroke:#000000;stroke-width:15;stroke-linecap:round;stroke-linejoin:round;stroke-miterlimit:10;stroke-dasharray:none;stroke-opacity:1"
             id="path5174" /></g><g
           id="g5176"
           transform="translate(148.0322,308.5)"><path
             d="M 0,0 H 356.468 V 60 H 0"
             style="fill:none;stroke:#000000;stroke-width:15;stroke-linecap:round;stroke-linejoin:round;stroke-miterlimit:10;stroke-dasharray:none;stroke-opacity:1"
             id="path5178" /></g><g
           id="g5180"
           transform="translate(409.5,308.5)"><path
             d="M 0,0 V 60"
             style="fill:none;stroke:#000000;stroke-width:15;stroke-linecap:round;stroke-linejoin:round;stroke-miterlimit:10;stroke-dasharray:none;stroke-opacity:1"
             id="path5182" /></g><g
           id="g5184"
           transform="translate(314.5,308.5)"><path
             d="M 0,0 V 60"
             style="fill:none;stroke:#000000;stroke-width:15;stroke-linecap:round;stroke-linejoin:round;stroke-miterlimit:10;stroke-dasharray:none;stroke-opacity:1"
             id="path5186" /></g><g
           id="g5188"
           transform="translate(219.5,308.5)"><path
             d="M 0,0 V 60"
             style="fill:none;stroke:#000000;stroke-width:15;stroke-linecap:round;stroke-linejoin:round;stroke-miterlimit:10;stroke-dasharray:none;stroke-opacity:1"
             id="path5190" /></g></g></g></g></svg>
