<svg height="512pt" viewBox="-68 0 512 512.00002" width="512pt" xmlns="http://www.w3.org/2000/svg"><path d="m17.066406 512h34.132813c9.421875-.011719 17.058593-7.644531 17.066406-17.066406v-358.398438c.015625-14.132812 11.46875-25.585937 25.601563-25.601562h187.734374c14.128907.015625 25.582032 11.46875 25.597657 25.601562v358.398438c.011719 9.421875 7.644531 17.054687 17.066406 17.066406h34.132813c9.421874-.011719 17.058593-7.644531 17.066406-17.066406v-435.199219c-.035156-32.976563-26.757813-59.6953125-59.730469-59.734375h-256c-32.976563.0390625-59.6953125 26.757812-59.734375 59.734375v435.199219c.0117188 9.421875 7.644531 17.054687 17.066406 17.066406zm341.332032-17.066406h-34.132813v-358.398438c-.027344-23.554687-19.113281-42.640625-42.664063-42.667968h-187.734374c-23.554688.027343-42.640626 19.113281-42.667969 42.667968v358.398438h-34.132813v-435.199219h341.332032zm-298.664063-477.867188h256c16.941406.03125 32.265625 10.074219 39.050781 25.601563h-334.101562c6.785156-15.527344 22.105468-25.570313 39.050781-25.601563zm0 0"/><path d="m162.132812 85.332031h8.535157c4.710937 0 8.53125-3.820312 8.53125-8.53125 0-4.714843-3.820313-8.535156-8.53125-8.535156h-8.535157c-4.710937 0-8.53125 3.820313-8.53125 8.535156 0 4.710938 3.820313 8.53125 8.53125 8.53125zm0 0"/><path d="m204.800781 85.332031h8.53125c4.714844 0 8.535157-3.820312 8.535157-8.53125 0-4.714843-3.820313-8.535156-8.535157-8.535156h-8.53125c-4.714843 0-8.535156 3.820313-8.535156 8.535156 0 4.710938 3.820313 8.53125 8.535156 8.53125zm0 0"/><path d="m205.359375 505.941406c4.621094 3.914063 10.484375 6.058594 16.539063 6.058594 6.972656.007812 13.644531-2.828125 18.472656-7.859375s7.390625-11.8125 7.09375-18.777344v-120.003906c2.734375 1.011719 5.621094 1.542969 8.535156 1.574219 14.132812-.015625 25.585938-11.46875 25.601562-25.601563v-68.265625c-.027343-23.550781-19.117187-42.636718-42.667968-42.667968h-102.398438c-23.554687.03125-42.640625 19.117187-42.667968 42.667968v68.265625c.015624 14.132813 11.46875 25.585938 25.597656 25.601563 2.914062-.027344 5.800781-.5625 8.535156-1.574219v121.039063c.011719 7.542968 3.347656 14.699218 9.113281 19.5625 5.769531 4.863281 13.382813 6.9375 20.820313 5.675781 12.492187-2.492188 21.433594-13.535157 21.265625-26.273438v-67.230469c0-4.710937 3.820312-8.53125 8.535156-8.53125 4.710937 0 8.53125 3.820313 8.53125 8.53125v68.265626c.003906 7.535156 3.332031 14.6875 9.09375 19.542968zm-85.894531-156.074218c-4.710938-.003907-8.527344-3.824219-8.53125-8.535157v-68.265625c.015625-14.132812 11.46875-25.585937 25.601562-25.601562h102.398438c14.132812.015625 25.585937 11.46875 25.601562 25.601562v68.265625c0 4.714844-3.824218 8.535157-8.535156 8.535157s-8.535156-3.820313-8.535156-8.535157v-59.730469c0-4.714843-3.820313-8.535156-8.53125-8.535156-4.714844 0-8.535156 3.820313-8.535156 8.535156v76.796876h-85.332032v-76.796876c0-4.714843-3.820312-8.535156-8.53125-8.535156-4.714844 0-8.535156 3.820313-8.535156 8.535156v59.730469c-.003906 4.710938-3.820312 8.53125-8.535156 8.535157zm68.269531 42.667968c-14.132813.015625-25.585937 11.464844-25.601563 25.597656v67.230469c.171876 4.410157-2.757812 8.34375-7.03125 9.441407-2.484374.429687-5.035156-.257813-6.964843-1.875-1.933594-1.621094-3.058594-4.007813-3.070313-6.53125v-110.933594h85.332032v109.898437c.175781 4.410157-2.753907 8.34375-7.03125 9.441407-2.484376.429687-5.03125-.257813-6.964844-1.875-1.933594-1.621094-3.054688-4.007813-3.070313-6.53125v-68.265626c-.015625-14.132812-11.464843-25.582031-25.597656-25.597656zm0 0"/><path d="m230.398438 170.667969c0-23.566407-19.101563-42.667969-42.664063-42.667969-23.566406 0-42.667969 19.101562-42.667969 42.667969 0 23.5625 19.101563 42.664062 42.667969 42.664062 23.550781-.027343 42.636719-19.113281 42.664063-42.664062zm-68.265626 0c0-14.140625 11.460938-25.601563 25.601563-25.601563 14.136719 0 25.597656 11.460938 25.597656 25.601563 0 14.136719-11.460937 25.597656-25.597656 25.597656-14.132813-.015625-25.585937-11.46875-25.601563-25.597656zm0 0"/></svg>