<svg height="512" viewBox="0 0 32 32" width="512" xmlns="http://www.w3.org/2000/svg"><g id="_x31_2"><path d="m29.086 24.672-4.379-4.379c-.317-.317-.788-.363-1.165-.165l-1.256-1.256c1.079-1.702 1.714-3.712 1.714-5.872 0-6.065-4.935-11-11-11s-11 4.935-11 11 4.935 11 11 11c2.16 0 4.17-.635 5.872-1.714l1.256 1.256c-.198.377-.152.848.165 1.165l4.379 4.379c.589.59 1.373.914 2.207.914.833 0 1.617-.324 2.208-.914 1.215-1.218 1.215-3.198-.001-4.414zm-25.086-11.672c0-4.963 4.038-9 9-9s9 4.037 9 9-4.038 9-9 9-9-4.037-9-9zm17.054 7.468 1.032 1.032-.586.586-1.032-1.032c.202-.189.397-.384.586-.586zm6.618 7.204c-.425.424-1.163.423-1.586 0l-3.672-3.672 1.586-1.586 3.672 3.672c.437.437.436 1.148 0 1.586z"/><path d="m19.447 8.105-6-3c-.281-.141-.613-.141-.895 0l-6 3c-.338.17-.552.516-.552.895 0 4.111 1.811 7.978 4.969 10.609l1.391 1.159c.185.155.412.232.64.232s.455-.077.64-.231l1.391-1.159c3.158-2.632 4.969-6.499 4.969-10.61 0-.379-.214-.725-.553-.895zm-5.697 9.967-.75.626-.75-.626c-2.544-2.119-4.066-5.176-4.234-8.462l4.984-2.492 4.984 2.492c-.168 3.286-1.69 6.343-4.234 8.462z"/><path d="m11.707 11.293c-.391-.391-1.023-.391-1.414 0s-.391 1.023 0 1.414l2 2c.188.189.443.293.707.293.023 0 .047-.001.071-.003.289-.021.555-.165.729-.397l3-4c.332-.441.242-1.068-.2-1.399-.443-.331-1.069-.242-1.4.2l-2.309 3.077z"/></g></svg>