<?xml version="1.0" encoding="UTF-8"?>
<svg xmlns="http://www.w3.org/2000/svg" viewBox="0 0 64 64" width="512" height="512"><g id="Circuit"><path d="M53,6H11a5.00588,5.00588,0,0,0-5,5V53a5.00588,5.00588,0,0,0,5,5H53a5.00588,5.00588,0,0,0,5-5V11A5.00588,5.00588,0,0,0,53,6Zm3,5v1.77051H39.208V8H53A3.00328,3.00328,0,0,1,56,11ZM8,53V11a3.00328,3.00328,0,0,1,3-3h1.38763c-.00346,1.39994-.011,6.03862.001,8.00684a2.98985,2.98985,0,0,0,.75781,1.96972l2.99415,3.36914a1.00087,1.00087,0,0,1,.25292.665v5.09033a5,5,0,1,0,2,0V22.01074a2.99466,2.99466,0,0,0-.75781-1.99316l-2.99511-3.37012a.98606.98606,0,0,1-.252-.65234c-.01163-1.90437-.00492-6.4062-.001-7.99512H37.208v4.77051a2.0026,2.0026,0,0,0,2,2H56V19.667H33.40234a1.01126,1.01126,0,0,1-.58985-.19238L30.019,17.43805a4.94566,4.94566,0,0,0,.481-2.105,5.05186,5.05186,0,1,0-1.67664,3.70752l2.80945,2.04931a2.98655,2.98655,0,0,0,1.76953.57715H56V25H33.30762a2.01442,2.01442,0,0,0-1.41407.58594L27.22949,30.25a2.0144,2.0144,0,0,0-.58594,1.41406v3.92188l-5.748,5.74707h-5.419a2.0026,2.0026,0,0,0-2,2V56H11A3.00328,3.00328,0,0,1,8,53Zm9.39355-24a3,3,0,1,1-3,3A3.00328,3.00328,0,0,1,17.39355,29ZM25.5,18.333a3,3,0,1,1,3-3A3.00328,3.00328,0,0,1,25.5,18.333ZM47.542,50.25V56H35.917V48.375h5.419A2.0144,2.0144,0,0,0,42.75,47.78906L48.49707,42.042a2.01438,2.01438,0,0,0,.58594-1.41406V36.70605L53.74707,32.042H56V48.25H49.542A2.0026,2.0026,0,0,0,47.542,50.25Zm6.20508-20.208a2.01438,2.01438,0,0,0-1.41406.58594L47.669,35.292a1.98635,1.98635,0,0,0-.58594,1.41406v3.92188L41.33594,46.375H35.917a2.0026,2.0026,0,0,0-2,2V56H25.31055V50.65918a1.98774,1.98774,0,0,1,.585-1.41406l9.22339-9.22248A4.95462,4.95462,0,0,0,38.06055,41a5,5,0,1,0-5-5,4.94422,4.94422,0,0,0,.71576,2.53711l-9.29486,9.29394a3.9741,3.9741,0,0,0-1.1709,2.82813V56h-7.834V43.333h5.419a2.015,2.015,0,0,0,1.415-.58594L28.05762,37a2.01439,2.01439,0,0,0,.58593-1.41406V31.66406L33.30762,27H56v3.042ZM35.06055,36a3,3,0,1,1,3,3A3.00328,3.00328,0,0,1,35.06055,36ZM53,56H49.542V50.25H56V53A3.00328,3.00328,0,0,1,53,56Z"/></g></svg>
