<svg enable-background="new 0 0 64 64" height="64" viewBox="0 0 64 64" width="64" xmlns="http://www.w3.org/2000/svg"><g id="Layer_1"/><g id="Layer_2"/><g id="Layer_3"/><g id="Layer_4"/><g id="Layer_5"/><g id="Layer_6"/><g id="Layer_7"/><g id="Layer_8"/><g id="Layer_9"/><g id="Layer_10"/><g id="Layer_11"/><g id="Layer_12"/><g id="Layer_13"/><g id="Layer_14"/><g id="Layer_15"/><g id="Layer_16"/><g id="Layer_17"/><g id="Layer_18"/><g id="Layer_19"/><g id="Layer_20"/><g id="Layer_21"/><g id="Layer_22"/><g id="Layer_23"/><g id="Layer_24"/><g id="Layer_25"/><g id="Layer_26"/><g id="Layer_27"/><g id="Layer_28"/><g id="Layer_29"/><g id="Layer_30"/><g id="Layer_31"/><g id="Layer_32"/><g id="Layer_33"/><g id="Layer_34"/><g id="Layer_35"/><g id="Layer_36"/><g id="Layer_37"/><g id="Layer_38"/><g id="Layer_39"/><g id="Layer_40"/><g id="Layer_41"/><g id="Layer_42"/><g id="Layer_43"/><g id="Layer_44"/><g id="Layer_45"/><g id="Layer_46"/><g id="Layer_47"/><g id="Layer_48"/><g id="Layer_49"/><g id="Layer_50"/><g id="Layer_51"/><g id="Layer_52"/><g id="Layer_53"/><g id="Layer_54"/><g id="Layer_55"/><g id="Layer_56"/><g id="Layer_57"/><g id="Layer_58"/><g id="Layer_59"/><g id="Layer_60"/><g id="Layer_61"/><g id="Layer_62"/><g id="Layer_63"/><g id="Layer_64"/><g id="Layer_65"/><g id="Layer_66"/><g id="Layer_67"/><g id="Layer_68"/><g id="Layer_69"/><g id="Layer_70"/><g id="Layer_71"/><g id="Layer_72"/><g id="Layer_73"/><g id="Layer_74"/><g id="Layer_75"/><g id="Layer_76"/><g id="Layer_77"/><g id="Layer_78"/><g id="Layer_79"/><g id="Layer_80"/><g id="Layer_81"/><g id="Layer_82"/><g id="Layer_83"/><g id="Layer_84"/><g id="Layer_85"><path d="m61.24 24.19c.029-.391-.17-.75-.51-.94l-29.85-16.96c-.479-.271-1.09-.1-1.36.38l-3.649 6.42c-.13.23-.16.51-.09.76.029.11.069.2.14.29l-2.66 4.681c-.13.229-.16.5-.09.76s.24.47.47.6l5.601 3.181-1.26 2.22c-.28.479-.11 1.09.369 1.36l3.011 1.71-4.42 7.77c-1.131.29-2.11.95-2.801 1.85h-10.261v-2.332c0-.551-.45-1-1-1h-4.43v-9.65c0-.55-.45-1-1-1h-3.69c-.55 0-1 .45-1 1v31.55c0 .55.45 1 1 1h3.69c.55 0 1-.45 1-1v-7.81h4.43c.55 0 1-.45 1-1v-2.26h11.53c.81.54 1.79.851 2.83.851 2.859 0 5.18-2.32 5.18-5.18 0-.36-.04-.71-.11-1.04 0-.011.011-.011.011-.021l4.56-8.03 3.18 1.811c.16.09.33.13.5.13.351 0 .681-.18.87-.5l1.261-2.22 5.608 3.189c.15.08.32.13.49.13.09 0 .18-.01.27-.04.25-.069.471-.239.601-.47l.08-.14 2.45 1.39c.149.09.319.13.489.13.09 0 .181-.01.271-.04.25-.069.47-.239.6-.47l3.17-5.58c.13-.229.16-.5.09-.76-.04-.141-.109-.271-.199-.38 3.368-1.48 3.618-4.19 3.628-4.34zm-54.79 31.65h-1.69v-29.55h1.69zm5.43-8.81h-3.43v-10.09h3.43zm2-3.26v-3.5h9.311c-.091.38-.141.77-.141 1.17 0 .84.2 1.63.561 2.329h-9.731zm14.36.85c-1.76 0-3.19-1.43-3.19-3.18 0-1.761 1.431-3.19 3.19-3.19s3.18 1.43 3.18 3.19c0 1.75-1.42 3.18-3.18 3.18zm4.03-6.44c-.739-.92-1.789-1.58-2.989-1.819l3.819-6.721 3.04 1.73zm8.91-6.25-10.97-6.23.76-1.351 10.98 6.23zm8.24.59-23.93-13.58 2.109-3.71 23.921 13.58zm3.88.88-1.569-.9 1.72-3.03c.56-.04 1.08-.1 1.569-.18h.011l.45.26zm-.07-5.92-25.13-14.27 2.66-4.68 28.32 16.08c-.4.91-1.68 2.62-5.85 2.87z"/></g><g id="Layer_86"/><g id="Layer_87"/><g id="Layer_88"/><g id="Layer_89"/><g id="Layer_90"/><g id="Layer_91"/><g id="Layer_92"/><g id="Layer_93"/><g id="Layer_94"/><g id="Layer_95"/><g id="Layer_96"/><g id="Layer_97"/><g id="Layer_98"/><g id="Layer_99"/><g id="Layer_100"/><g id="Layer_101"/></svg>