<svg height="512" viewBox="0 0 60 58" width="512" xmlns="http://www.w3.org/2000/svg"><g id="Page-1" fill="none" fill-rule="evenodd"><g id="018---Phone-Charger" fill="rgb(0,0,0)" fill-rule="nonzero"><path id="Shape" d="m57 11c1.6568542 0 3-1.34314575 3-3s-1.3431458-3-3-3h-5c0-1.1045695-.8954305-2-2-2h-4c0-1.65685425-1.3431458-3-3-3h-14c-1.6568542 0-3 1.34314575-3 3v32c0 1.6568542 1.3431458 3 3 3h2.581l.633 4.271c.2001337 1.0296208 1.1176284 1.7620069 2.166 1.729h.62v6c-.0033074 3.3123376-2.6876624 5.9966926-6 6h-1c-3.3123376-.0033074-5.9966926-2.6876624-6-6v-35c-.0000001-4.4182779-3.5817221-7.99999983-8-7.99999983-4.41827793 0-7.99999991 3.58172193-8 7.99999983v17h-3c-1.65685425 0-3 1.3431458-3 3v10c.00525139 1.2667854.80564914 2.3937454 2 2.816v4.184c0 1.6568542 1.34314575 3 3 3h4c1.6568542 0 3-1.3431458 3-3v-4.184c1.1943509-.4222546 1.9947486-1.5492146 2-2.816v-10c0-1.6568542-1.3431458-3-3-3h-3v-17c.00000005-3.3137085 2.6862915-5.99999991 6-5.99999991s6 2.68629141 6 5.99999991v35c.0049599 4.4162219 3.5837781 7.9950401 8 8h1c4.4162219-.0049599 7.9950401-3.5837781 8-8v-6h.62c1.0483716.0330069 1.9658663-.6993792 2.166-1.729l.633-4.271h2.581c1.6568542 0 3-1.3431458 3-3v-14h4c1.1045695 0 2-.8954305 2-2h5c1.6568542 0 3-1.3431458 3-3s-1.3431458-3-3-3h-5v-2zm-47 41c0 .5522847-.44771525 1-1 1h-4c-.55228475 0-1-.4477153-1-1v-4h2v2c0 .5522847.44771525 1 1 1s1-.4477153 1-1v-2h2zm2-17v10c0 .5522847-.4477153 1-1 1h-8c-.55228475 0-1-.4477153-1-1v-10c0-.5522847.44771525-1 1-1h8c.5522847 0 1 .4477153 1 1zm45-28c.5522847 0 1 .44771525 1 1s-.4477153 1-1 1h-5v-2zm-19.177 34.934c-.0557944.0467292-.1273518.0703431-.2.066h-3.243c-.0613761-.0035603-.1221237-.0143002-.181-.032 0 0-.008 0-.007.009l-.592-3.977h4.8zm6.177-6.934c0 .5522847-.4477153 1-1 1h-14c-.5522847 0-1-.4477153-1-1v-22h5c.5522847 0 1-.4477153 1-1s-.4477153-1-1-1h-5v-3h5c.5522847 0 1-.44771525 1-1s-.4477153-1-1-1h-5v-3c0-.55228475.4477153-1 1-1h14c.5522847 0 1 .44771525 1 1zm6-16h-4v-14h4zm7-4c.5522847 0 1 .4477153 1 1s-.4477153 1-1 1h-5v-2z"/><path id="Shape" d="m5 36c-.55228475 0-1 .4477153-1 1v2c0 .5522847.44771525 1 1 1s1-.4477153 1-1v-1h1c.55228475 0 1-.4477153 1-1s-.44771525-1-1-1z"/></g></g></svg>