<svg id="line" height="512" viewBox="0 0 64 64" width="512" xmlns="http://www.w3.org/2000/svg"><path d="m48.5293 25.75488c-.9031-21.81582-31.98941-21.809-32.88919.00013a1.00018 1.00018 0 0 0 2-.00019c.79415-19.16337 28.09927-19.15591 28.88918.00017v8.454a1.00011 1.00011 0 0 0 2 0z"/><path d="m44.8584 27.59473c-1.00884-18.20994-22.0694-19.08105-25.62259-1.85044-.26609 1.29426-.38833 2.45113-2.67477 2.869a1.00006 1.00006 0 0 0 .35065 1.96873 4.69633 4.69633 0 0 0 4.25042-4.27147c1.21955-6.38632 5.75761-10.98441 10.92286-10.96581 7.23864-.25193 11.42784 7.19165 10.76546 15.22182-.21371 3.69125 1.45719 6.28012 4.46891 6.92563a.99983.99983 0 0 0 .41992-1.95508c-4.02375-1.1196-2.57067-4.89896-2.88086-7.94238z"/><path d="m47.53027 41.03906a1.0014 1.0014 0 0 0 .13665-1.99024c-4.75383-.6621-6.25481-3.30175-6.20989-4.40331.04339-1.042.00338-2.0861.00293-3.12891 0-9.54785-3.0625-14.18847-9.36133-14.18847-3.14892 0-8.5498 1.34082-9.33838 10.32031-.20268 2.94008-3.04034 4.365-5.66509 4.6132a.99992.99992 0 0 0 .21392 1.98836c3.5759-.31064 7.18914-2.53221 7.44327-6.42589.61679-7.02235 4.33554-8.496 7.34677-8.496 5.67332-.24039 7.77139 5.09759 7.35968 15.23449-.13847 2.05912 2.1822 5.7838 8.07147 6.47646z"/><path d="m46.28125 44.69727a1.00041 1.00041 0 0 0 -.01569-2c-3.87842.06707-7.53232-3.57139-8.83783-7.125a17.10677 17.10677 0 0 1 -.31933-5.32715c.11031-4.25269.3514-9.19887-4.34568-9.36239-6.04946.04981-5.10855 6.10679-6.9245 10.30467-1.78549 4.9542-9.24984 4.72959-9.32894 4.72666a.98465.98465 0 0 0 -1.0376.96.99911.99911 0 0 0 .958 1.03809c.374.02344 9.00683.28906 11.29052-6.04688a41.19118 41.19118 0 0 0 1.24562-4.32227c.86914-3.54 1.26465-4.66016 3.79688-4.66016a1.80866 1.80866 0 0 1 1.42578.50879c1.09179 1.126 1.001 4.13672.9209 6.79395-.06934 2.31543-.13575 4.502.4414 6.07422 1.51856 4.1489 5.80395 8.51666 10.73047 8.43747z"/><path d="m17.24023 41.8291c15.58252-.59082 15.89161-15.72851 15.89258-15.88086a1.00016 1.00016 0 0 0 -2-.01751c-.0044.54681-.271 13.38079-13.96876 13.90032a.99986.99986 0 0 0 .07618 1.99805z"/><path d="m17.90967 45.76172c11.03437-1.06647 15.24376-8.50113 15.34127-8.78128a1.00014 1.00014 0 0 0 -1.76852-.93454c-.145.27148-3.66015 6.64453-13.67822 7.72168a1.00119 1.00119 0 0 0 .10547 1.99414z"/><path d="m20.12744 49.30859c9.47717-.5698 14.83657-8.40008 15.02293-8.71778a1.00024 1.00024 0 0 0 -1.668-1.10448c-.04785.07226-4.91211 7.24609-13.42187 7.82422a1.00106 1.00106 0 0 0 .06694 1.99804z"/><path d="m23.7627 52.32324c8.18813-.8749 13.35388-8.22873 13.51169-8.50978a1.00012 1.00012 0 0 0 -1.6572-1.1201c-.0459.06738-4.646 6.73144-11.97559 7.63769a1.00123 1.00123 0 0 0 .1211 1.99219z"/><path d="m40.41016 46.19434a1 1 0 0 0 -1.545-1.26948c-.05075.06244-5.17477 6.24018-10.12692 7.56147a1.00233 1.00233 0 0 0 .25738 1.9658c5.5327-1.1803 11.22828-8.0322 11.41454-8.25779z"/><path d="m42.124 45.55176a1.0003 1.0003 0 0 0 -.89447 1.78909 14.83629 14.83629 0 0 0 3.39936 1.24606.99991.99991 0 0 0 .30269-1.97656 13.11676 13.11676 0 0 1 -2.80758-1.05859z"/><path d="m41.67578 51.76172a1.00506 1.00506 0 0 0 .41692-1.90919l-2.46965-1.1289a1 1 0 0 0 -.832 1.81838 22.21087 22.21087 0 0 0 2.88473 1.21971z"/><path d="m54.25 4h-13.44043a1.00019 1.00019 0 0 0 .00007 2h12.44036v12.44043a1 1 0 0 0 2 0v-13.44043a.99943.99943 0 0 0 -1-1z"/><path d="m54.25 44.55957a.99943.99943 0 0 0 -1 1v12.44043h-12.44043a1 1 0 0 0 0 2h13.44043a.99943.99943 0 0 0 1-1v-13.44043a.99943.99943 0 0 0 -1-1z"/><path d="m9.75 19.44043a.99974.99974 0 0 0 1-1v-12.44043h12.44043a1 1 0 0 0 0-2h-13.44043a.99974.99974 0 0 0 -1 1v13.44043a.99974.99974 0 0 0 1 1z"/><path d="m23.19043 58h-12.44043v-12.44043a1.00011 1.00011 0 0 0 -2 .00005v13.44038a.99974.99974 0 0 0 1 1h13.44043a1.00019 1.00019 0 0 0 0-2z"/></svg>